# xmcd CD database file
#
# Track frame offsets:
#	150
#	18670
#	37459
#	52806
#	69881
#	87440
#	112182
#	130304
#	147029
#	169120
#	188023
#	208043
#	224985
#	247646
#	273751
#	292654
#	314342
#	335197
#
# Disc length: 4723 seconds
#
# Revision: 0
# Processed by: cddbd v1.5.1PL2 Copyright (c) Steve Scherf et al.
# Submitted via: CDex 1.51
#
DISCID=14127112
DTITLE=Faith Hill - Fireflies (China Ed. CD2)
DYEAR=1900
DGENRE=Country
TTITLE0=Breathe
TTITLE1=Let's make love
TTITLE2=Better days
TTITLE3=Love ain't like
TTITLE4=Love is sweet thing
TTITLE5=What's in it for me
TTITLE6=If I'm not in love
TTITLE7=It will be me
TTITLE8=My wild frontier
TTITLE9=The secret of life
TTITLE10=Just to hear you say that you love me
TTITLE11=Me
TTITLE12=I love you
TTITLE13=Someone stand by me
TTITLE14=Home ain't where his heart is
TTITLE15=The woman in me
TTITLE16=Raining on our love
TTITLE17=That's how love moves
EXTD=
EXTT0=
EXTT1=
EXTT2=
EXTT3=
EXTT4=
EXTT5=
EXTT6=
EXTT7=
EXTT8=
EXTT9=
EXTT10=
EXTT11=
EXTT12=
EXTT13=
EXTT14=
EXTT15=
EXTT16=
EXTT17=
PLAYORDER=
